<?xml version="1.0" encoding="UTF-8" standalone="no"?>
<!DOCTYPE svg PUBLIC "-//W3C//DTD SVG 1.0//EN"
"http://www.w3.org/TR/2001/REC-SVG-20010904/DTD/svg10.dtd">
<svg
   id="svg1"
   sodipodi:version="0.32"
   inkscape:version="0.38cvs-20040210"
   xmlns="http://www.w3.org/2000/svg"
   xmlns:sodipodi="http://sodipodi.sourceforge.net/DTD/sodipodi-0.dtd"
   xmlns:inkscape="http://www.inkscape.org/namespaces/inkscape"
   xmlns:xlink="http://www.w3.org/1999/xlink"
   width="210mm"
   height="297mm"
   sodipodi:docbase="C:\Users\Aditya virtual\Pictures\Inkscape"
   sodipodi:docname="wine and glass">
  <defs
     id="defs3" />
  <sodipodi:namedview
     id="base"
     pagecolor="#ffffff"
     bordercolor="#666666"
     borderopacity="1.0"
     inkscape:pageopacity="0.0"
     inkscape:pageshadow="2"
     inkscape:zoom="0.35355339"
     inkscape:cx="821.21190783"
     inkscape:cy="198.59031786"
     inkscape:window-width="1256"
     inkscape:window-height="747"
     showborder="false"
     inkscape:window-x="837"
     inkscape:window-y="144" />
  <g
     id="g778">
    <path
       style="font-size:12;fill:#010000;fill-opacity:0.1;fill-rule:evenodd;stroke:#000000;stroke-width:12.5;stroke-linejoin:round;stroke-opacity:0.0599999;"
       d="M 349.40625,351.12500 C 253.69846,351.12500 176.00000,364.00500 176.00000,379.87500 C 176.00000,379.94839 176.05918,380.02049 176.06250,380.09375 C 158.75722,425.73857 148.75000,478.81111 148.75000,535.50000 C 148.75000,705.58500 238.07000,843.62500 348.12500,843.62500 C 458.18000,843.62500 547.50000,705.58500 547.50000,535.50000 C 547.50000,480.14204 537.99656,428.22677 521.43750,383.31250 C 522.24708,382.18636 522.78125,381.03709 522.78125,379.87500 C 522.78125,364.00500 445.11405,351.12500 349.40625,351.12500 z "
       id="path641"
       transform="matrix(1.536633,0.000000,0.000000,1.536633,-186.8154,-445.9253)" />
    <path
       style="font-size:12;fill:#4d0000;fill-rule:evenodd;stroke-width:1pt;fill-opacity:1;"
       d="M 228.00000,564.06250 C 213.71719,564.69210 198.87915,567.26577 183.31250,572.37500 C 173.03901,575.74692 162.47736,580.27476 151.50000,586.03125 C 167.11927,732.09520 249.20905,843.62500 348.12500,843.62500 C 437.75157,843.62500 513.67027,752.10145 538.75000,626.25000 C 530.60325,628.64013 522.56958,630.65111 514.81250,631.93750 C 493.29023,635.50661 473.20400,635.08487 454.06250,632.09375 C 434.92100,629.10261 416.74139,623.54107 399.09375,616.84375 C 381.44611,610.14640 364.31001,602.30637 347.25000,594.75000 C 330.18999,587.19361 313.18789,579.92660 295.81250,574.34375 C 278.43711,568.76088 260.69044,564.85649 242.09375,564.06250 C 237.44458,563.86400 232.76094,563.85263 228.00000,564.06250 z "
       id="path711"
       transform="matrix(1.536633,0.000000,0.000000,1.536633,-186.8154,-445.9253)" />
    <path
       style="font-size:12;fill:#970000;fill-rule:evenodd;stroke-width:1pt;fill-opacity:1;"
       d="M 483.56250,549.56250 C 473.51999,549.59502 463.76367,550.41959 454.25000,551.90625 C 435.22267,554.87952 417.12727,560.41599 399.53125,567.09375 C 381.93523,573.77148 364.81934,581.59572 347.75000,589.15625 C 330.68066,596.71674 313.66927,604.01798 296.21875,609.62500 C 278.76823,615.23198 260.89291,619.13750 242.15625,619.93750 C 237.47208,620.13747 232.73646,620.14976 227.93750,619.93750 C 213.54064,619.30067 198.57834,616.70632 182.90625,611.56250 C 173.24338,608.39098 163.28741,604.12687 153.03125,598.87500 C 171.95419,738.59451 252.12343,843.62500 348.12500,843.62500 C 452.78751,843.62500 538.67620,718.77273 546.84375,560.25000 C 535.75059,556.49672 525.00152,553.78327 514.62500,552.06250 C 503.93370,550.28951 493.60501,549.52998 483.56250,549.56250 z "
       id="path692"
       transform="matrix(1.536633,0.000000,0.000000,1.536633,-186.8154,-445.9253)" />
    <path
       style="font-size:12;fill:#fff7ff;fill-opacity:0.3;fill-rule:evenodd;stroke-width:1pt;"
       d="M 190.000000 401.562500 C 177.278463 442.088896 170.000000 487.461351 170.000000 535.500000 C 170.000000 660.956070 218.581770 768.949660 288.250000 817.000000 C 238.259590 755.068810 206.250000 659.957880 206.250000 553.312500 C 206.250000 502.023534 213.844572 453.534327 227.125000 410.000000 C 214.533633 408.059100 202.005967 405.661234 190.000000 401.562500 z "
       id="path685"
       transform="matrix(1.536633,0.000000,0.000000,1.536633,-186.8154,-445.9253)" />
    <path
       style="font-size:12;fill:#ffffff;fill-rule:evenodd;stroke-width:1pt;"
       d="M 318.343750 351.656250 C 237.489922 354.092372 176.000000 365.768732 176.000000 379.875000 C 176.000000 395.745000 253.698470 408.625003 349.406250 408.625000 C 445.114040 408.625000 522.781271 395.745002 522.781250 379.875000 C 522.781250 365.770309 461.309175 354.094182 380.468750 351.656250 C 449.155740 354.035997 500.812500 364.157184 500.812500 376.250000 C 500.812485 390.109587 432.989721 401.343750 349.406250 401.343750 C 265.822775 401.343747 197.968750 390.109575 197.968750 376.250000 C 197.968756 364.155294 249.640605 354.033946 318.343750 351.656250 z "
       id="path717"
       transform="matrix(1.536633,0.000000,0.000000,1.536633,-186.8154,-445.9253)" />
    <path
       style="font-size:12;fill-opacity:0.1;fill-rule:evenodd;stroke-width:0.7799pt;"
       d="M 318.000000 840.062500 C 327.140982 897.598369 332.843750 979.755811 332.843750 1071.218750 C 332.843750 1144.282609 329.190821 1211.415934 323.062500 1264.906250 L 372.625000 1264.906250 C 366.496448 1211.415390 362.781250 1144.284098 362.781250 1071.218750 C 362.781247 979.826787 368.573179 897.745731 377.718750 840.218750 C 368.063803 842.440618 358.177196 843.625000 348.125000 843.625000 C 337.872511 843.625000 327.835682 842.373097 318.000000 840.062500 z "
       id="path736"
       transform="matrix(1.536633,0.000000,0.000000,1.536633,-186.8154,-445.9253)" />
    <path
       style="font-size:12;fill-opacity:0.1;fill-rule:evenodd;stroke-width:1pt;"
       d="M 323.656250 1259.031250 C 248.979162 1260.906948 191.625004 1271.152601 191.625000 1283.625000 C 191.625000 1297.425000 261.624989 1308.625000 347.875000 1308.625000 C 434.125000 1308.625000 504.124989 1297.425000 504.125000 1283.625000 C 504.125000 1271.150888 446.754641 1260.904878 372.062500 1259.031250 C 372.268320 1260.910597 372.413370 1263.059117 372.625000 1264.906250 L 323.062500 1264.906250 C 323.274215 1263.058322 323.450492 1260.911425 323.656250 1259.031250 z "
       id="path739"
       transform="matrix(1.536633,0.000000,0.000000,1.536633,-186.8154,-445.9253)" />
    <path
       style="font-size:12;fill-opacity:0.33058;fill-rule:evenodd;stroke-width:1pt;"
       d="M 323.656250 1261.218750 C 323.580573 1261.220651 323.513142 1261.248082 323.437500 1261.250000 C 323.317526 1262.495454 323.194279 1263.756037 323.062500 1264.906250 L 323.312500 1264.906250 C 323.433955 1263.660513 323.527611 1262.425422 323.656250 1261.250000 L 323.656250 1261.218750 z M 372.062500 1261.250000 C 372.190673 1262.420352 372.325706 1263.664922 372.437500 1264.906250 L 372.625000 1264.906250 C 372.494431 1263.766629 372.391040 1262.516322 372.281250 1261.281250 C 372.205686 1261.279336 372.138100 1261.251896 372.062500 1261.250000 z M 503.812500 1284.687500 C 500.323741 1297.994479 431.896572 1308.625000 347.875000 1308.625000 C 263.924018 1308.625000 195.563863 1298.010044 191.968750 1284.718750 C 191.866100 1285.089634 191.625000 1285.437421 191.625000 1285.812500 C 191.625000 1299.612500 261.624990 1310.812500 347.875000 1310.812500 C 434.125000 1310.812500 504.124990 1299.612500 504.125000 1285.812500 C 504.125000 1285.429035 503.919767 1285.066575 503.812500 1284.687500 z "
       id="path742"
       transform="matrix(1.536633,0.000000,0.000000,1.536633,-186.8154,-445.9253)" />
  </g>
</svg>
